<svg xmlns="http://www.w3.org/2000/svg" viewBox="0 0 32 32"><defs><linearGradient id="f4vkmci1ia" x1="6" y1="25.5" x2="27" y2="25.5" gradientUnits="userSpaceOnUse"><stop offset=".1" stop-opacity="0"></stop><stop offset=".75"></stop></linearGradient><linearGradient id="k9c8y97jxc" y1="32" x2="32" gradientUnits="userSpaceOnUse"><stop offset=".2" stop-color="#8a3ffc"></stop><stop offset=".8" stop-color="#30b0ff"></stop></linearGradient><mask id="qu2gkzcoub" x="0" y="0" width="32" height="32" maskUnits="userSpaceOnUse"><path d="M15 29a9.011 9.011 0 0 1-9-9V7.618l9-4.5 11 5.5V6.382l-11-5.5-11 5.5V20a11 11 0 0 0 22 0h-2a9.011 9.011 0 0 1-9 9z" fill="#fff"></path><path fill="url(#f4vkmci1ia)" d="M6 19h21v13H6z"></path></mask></defs><g data-name="Layer 2"><g data-name="Light theme icons"><g mask="url(#qu2gkzcoub)"><path fill="url(#k9c8y97jxc)" d="M0 0h32v32H0z"></path></g><path d="m28 25.586-3.972-3.972a5.512 5.512 0 1 0-1.414 1.414L26.586 27zM19.5 22a3.5 3.5 0 1 1 3.5-3.5 3.5 3.5 0 0 1-3.5 3.5z" fill="#001d6c"></path></g></g></svg>