<svg data-name="Build icon here" xmlns="http://www.w3.org/2000/svg" viewBox="0 0 32 32"><defs><linearGradient id="3mjy2r5ota" x1="16" y1="28" x2="16" y2="11" gradientUnits="userSpaceOnUse"><stop offset=".5" stop-color="#fff"></stop><stop offset=".56" stop-color="#fbfbfb"></stop><stop offset=".623" stop-color="#eee"></stop><stop offset=".686" stop-color="#dadada"></stop><stop offset=".75" stop-color="#bcbcbc"></stop><stop offset=".815" stop-color="#979797"></stop><stop offset=".88" stop-color="#696969"></stop><stop offset=".945" stop-color="#343434"></stop><stop offset="1"></stop></linearGradient><linearGradient id="hphjwko00c" y1="32" x2="32" gradientUnits="userSpaceOnUse"><stop offset=".1" stop-color="#08bdba"></stop><stop offset=".9" stop-color="#0f62fe"></stop></linearGradient><mask id="8vsqkql60b" x="0" y="0" width="32" height="32" maskUnits="userSpaceOnUse"><path d="M30 23h-5.142A4 4 0 0 0 22 20.142V11h-2v9.142A4 4 0 0 0 17.142 23H2v2h15.142a3.981 3.981 0 0 0 7.716 0H30zm-9 3a2 2 0 1 1 2-2 2 2 0 0 1-2 2z" fill="url(#3mjy2r5ota)"></path><circle cx="21" cy="8" r="3" fill="#f4f4f4"></circle></mask></defs><g mask="url(#8vsqkql60b)"><path fill="url(#hphjwko00c)" d="M0 0h32v32H0z"></path></g><path d="M13 4H5v3H2v2h3v3h8V9h3V7h-3zm-2 6H7V6h4zm15-3h4v2h-4z" fill="#001d6c"></path></svg>