<svg id="watsonxCodeAssistant" xmlns="http://www.w3.org/2000/svg" xmlns:xlink="http://www.w3.org/1999/xlink" viewBox="0 0 32 32"><defs><linearGradient id="whe0ajclsa" x1="-201" y1="26.5" x2="-195" y2="26.5" gradientTransform="translate(208)" gradientUnits="userSpaceOnUse"><stop offset="0" stop-opacity="0"></stop><stop offset=".8"></stop></linearGradient><linearGradient id="k69ub25dgb" x1="-3136" y1="-7111" x2="-3127.577" y2="-7111" gradientTransform="translate(3152.577 7117)" xlink:href="#whe0ajclsa"></linearGradient><linearGradient id="ofa9b7bthd" x1="0" y1="32" x2="32" y2="0" gradientUnits="userSpaceOnUse"><stop offset=".1" stop-color="#a56eff"></stop><stop offset=".9" stop-color="#0f62fe"></stop></linearGradient><mask id="26qtzfb14c" x="0" y="0" width="32" height="32" maskUnits="userSpaceOnUse"><path d="M30 19h-2v-7a5 5 0 0 0-5-5h-6V5h6a7 7 0 0 1 7 7v7zM12 28H9c-3.86 0-7-3.14-7-7v-2h2v2c0 2.757 2.243 5 5 5h3v2z" style="fill:#fff"></path><path style="fill:url(#whe0ajclsa)" d="M7 24h6v5H7z"></path><path transform="rotate(180 20.788 6)" style="fill:url(#k69ub25dgb)" d="M16.577 4H25v4h-8.423z"></path><g><circle cx="3" cy="4" r="1" style="fill:#fff"></circle><path style="fill:#fff" d="M6 3h10v2H6z"></path><circle cx="3" cy="12" r="1" style="fill:#fff"></circle><path style="fill:#fff" d="M6 11h10v2H6z"></path><circle cx="15" cy="8" r="1" style="fill:#fff"></circle><path style="fill:#fff" d="M2 7h10v2H2z"></path><g><circle cx="15" cy="16" r="1" style="fill:#fff"></circle><path style="fill:#fff" d="M2 15h10v2H2z"></path></g></g></mask></defs><g style="fill:none;mask:url(#26qtzfb14c)"><path style="fill:url(#ofa9b7bthd)" d="M0 0h32v32H0z"></path></g><path style="fill:#001d6c" d="m28.17 26-2.58 2.58L27 30l4-4-4-4-1.42 1.41L28.17 26zM16.83 26l2.58-2.58L18 22l-4 4 4 4 1.42-1.41L16.83 26zM22 31l-1.915-.577L23 21l1.915.577L22 31z"></path></svg>