<svg xmlns="http://www.w3.org/2000/svg" viewBox="0 0 32 32"><defs><linearGradient id="tpamgpk3da" x1="8" y1="28" x2="17" y2="28" gradientUnits="userSpaceOnUse"><stop offset=".2"></stop><stop offset=".9" stop-opacity="0"></stop></linearGradient><linearGradient id="coyiqy9gtb" x1="15" y1="4" x2="24" y2="4" gradientUnits="userSpaceOnUse"><stop offset=".1" stop-opacity="0"></stop><stop offset=".8"></stop></linearGradient><linearGradient id="vr5gej4j3d" y1="32" x2="32" gradientUnits="userSpaceOnUse"><stop offset=".1" stop-color="#08bdba"></stop><stop offset=".9" stop-color="#0f62fe"></stop></linearGradient><mask id="lldxxx9xqc" x="0" y="0" width="32" height="32" maskUnits="userSpaceOnUse"><path d="M5 18H3v-4A11.013 11.013 0 0 1 14 3h9v2h-9a9.011 9.011 0 0 0-9 9zm13 11H9v-2h9a9.011 9.011 0 0 0 9-9v-4h2v4a11.013 11.013 0 0 1-11 11z" fill="#fff"></path><path fill="url(#tpamgpk3da)" d="M8 26h9v4H8z"></path><path fill="url(#coyiqy9gtb)" d="M15 2h9v4h-9z"></path></mask></defs><g data-name="Layer 2"><g data-name="Light theme icons"><g mask="url(#lldxxx9xqc)"><path fill="url(#vr5gej4j3d)" d="M0 0h32v32H0z"></path></g><path d="M16 21a5 5 0 1 1 5-5 5.006 5.006 0 0 1-5 5zm0-8a3 3 0 1 0 3 3 3 3 0 0 0-3-3z" fill="#001d6c"></path><circle cx="28" cy="10" r="2" fill="#001d6c"></circle><circle cx="4" cy="22" r="2" fill="#001d6c"></circle></g></g></svg>