<svg xmlns="http://www.w3.org/2000/svg" viewBox="0 0 32 32"><defs><linearGradient id="26habbkjua" x1="6.75" y1="-18.25" x2="-8.75" y2="-2.75" gradientTransform="translate(9 19)" gradientUnits="userSpaceOnUse"><stop offset=".263" stop-opacity="0"></stop><stop offset=".82"></stop></linearGradient><linearGradient id="odi6igcleb" x1="3455.504" y1="2257.504" x2="3455.504" y2="2282.504" gradientTransform="translate(-3437.004 -2246.004)" gradientUnits="userSpaceOnUse"><stop offset=".119" stop-opacity="0"></stop><stop offset=".526"></stop></linearGradient><linearGradient id="1fx56zp5nd" y1="32" x2="32" gradientUnits="userSpaceOnUse"><stop offset=".1" stop-color="#08bdba"></stop><stop offset=".9" stop-color="#0f62fe"></stop></linearGradient><mask id="5iwig2yu6c" x="0" y="0" width="32" height="32" maskUnits="userSpaceOnUse"><circle cx="16" cy="16" r="13" fill="none" stroke="#fff" stroke-miterlimit="10" stroke-width="2"></circle><path fill="url(#26habbkjua)" d="M0 1h16v15H0z"></path><path transform="rotate(-90 18.5 24)" fill="url(#odi6igcleb)" d="M10.5 11.5h16v25h-16z"></path></mask></defs><g data-name="Layer 2"><g data-name="Light theme"><g mask="url(#5iwig2yu6c)"><path fill="url(#1fx56zp5nd)" d="M0 0h32v32H0z"></path></g><path fill="#001d6c" d="m23 27.18-2.59-2.59L19 26l4 4 7-7-1.41-1.41L23 27.18z"></path><path d="m17 15.339 5 2v-2l-5-2.5v-2.5a1 1 0 1 0-2 0v2.5l-5 2.5v2l5-2v3.5l-2 1.5v1l3-1 3 1v-1l-2-1.5z" fill="#001d6c" fill-rule="evenodd"></path></g></g></svg>